<mxfile host="Electron" modified="2023-10-20T15:36:08.908Z" agent="Mozilla/5.0 (Windows NT 10.0; Win64; x64) AppleWebKit/537.36 (KHTML, like Gecko) draw.io/22.0.2 Chrome/114.0.5735.289 Electron/25.8.4 Safari/537.36" etag="jnZAJ3zyTMq3wK52tavg" version="22.0.2" type="device">
  <diagram name="Página-1" id="_brlj38MVH7S4Fp6-dms">
    <mxGraphModel dx="1276" dy="1783" grid="1" gridSize="10" guides="1" tooltips="1" connect="1" arrows="1" fold="1" page="1" pageScale="1" pageWidth="827" pageHeight="1169" math="0" shadow="0">
      <root>
        <mxCell id="0" />
        <mxCell id="1" parent="0" />
        <mxCell id="jM7nimucvdQbSOQcnxHk-1" value="CLIENTE" style="whiteSpace=wrap;html=1;" vertex="1" parent="1">
          <mxGeometry x="50" y="-614" width="120" height="60" as="geometry" />
        </mxCell>
        <mxCell id="jM7nimucvdQbSOQcnxHk-2" value="CONTRATAN" style="rhombus;whiteSpace=wrap;html=1;" vertex="1" parent="1">
          <mxGeometry x="295" y="-624" width="140" height="80" as="geometry" />
        </mxCell>
        <mxCell id="jM7nimucvdQbSOQcnxHk-3" value="PRODUCTOS" style="whiteSpace=wrap;html=1;" vertex="1" parent="1">
          <mxGeometry x="565" y="-614" width="120" height="60" as="geometry" />
        </mxCell>
        <mxCell id="jM7nimucvdQbSOQcnxHk-4" value="" style="endArrow=none;html=1;rounded=0;entryX=0;entryY=0.5;entryDx=0;entryDy=0;exitX=1;exitY=0.5;exitDx=0;exitDy=0;" edge="1" parent="1" source="jM7nimucvdQbSOQcnxHk-1" target="jM7nimucvdQbSOQcnxHk-2">
          <mxGeometry width="50" height="50" relative="1" as="geometry">
            <mxPoint x="170" y="-584" as="sourcePoint" />
            <mxPoint x="220" y="-634" as="targetPoint" />
          </mxGeometry>
        </mxCell>
        <mxCell id="jM7nimucvdQbSOQcnxHk-5" value="" style="endArrow=none;html=1;rounded=0;entryX=0;entryY=0.5;entryDx=0;entryDy=0;exitX=1;exitY=0.5;exitDx=0;exitDy=0;" edge="1" parent="1" source="jM7nimucvdQbSOQcnxHk-2" target="jM7nimucvdQbSOQcnxHk-3">
          <mxGeometry width="50" height="50" relative="1" as="geometry">
            <mxPoint x="440" y="-584" as="sourcePoint" />
            <mxPoint x="485" y="-634" as="targetPoint" />
          </mxGeometry>
        </mxCell>
        <mxCell id="jM7nimucvdQbSOQcnxHk-6" value="" style="endArrow=none;html=1;rounded=0;" edge="1" parent="1">
          <mxGeometry width="50" height="50" relative="1" as="geometry">
            <mxPoint x="685" y="-584" as="sourcePoint" />
            <mxPoint x="810" y="-584" as="targetPoint" />
          </mxGeometry>
        </mxCell>
        <mxCell id="jM7nimucvdQbSOQcnxHk-7" value="" style="triangle;whiteSpace=wrap;html=1;" vertex="1" parent="1">
          <mxGeometry x="810" y="-624" width="70" height="80" as="geometry" />
        </mxCell>
        <mxCell id="jM7nimucvdQbSOQcnxHk-8" value="" style="endArrow=none;html=1;rounded=0;" edge="1" parent="1">
          <mxGeometry width="50" height="50" relative="1" as="geometry">
            <mxPoint x="860" y="-480" as="sourcePoint" />
            <mxPoint x="860" y="-570" as="targetPoint" />
          </mxGeometry>
        </mxCell>
        <mxCell id="jM7nimucvdQbSOQcnxHk-9" value="" style="endArrow=none;html=1;rounded=0;exitX=0.703;exitY=0.375;exitDx=0;exitDy=0;exitPerimeter=0;" edge="1" parent="1" source="jM7nimucvdQbSOQcnxHk-7">
          <mxGeometry width="50" height="50" relative="1" as="geometry">
            <mxPoint x="860" y="-600" as="sourcePoint" />
            <mxPoint x="860" y="-690" as="targetPoint" />
          </mxGeometry>
        </mxCell>
        <mxCell id="jM7nimucvdQbSOQcnxHk-10" value="" style="endArrow=none;html=1;rounded=0;" edge="1" parent="1">
          <mxGeometry width="50" height="50" relative="1" as="geometry">
            <mxPoint x="1020" y="-480" as="sourcePoint" />
            <mxPoint x="860" y="-480" as="targetPoint" />
          </mxGeometry>
        </mxCell>
        <mxCell id="jM7nimucvdQbSOQcnxHk-11" value="" style="endArrow=none;html=1;rounded=0;" edge="1" parent="1">
          <mxGeometry width="50" height="50" relative="1" as="geometry">
            <mxPoint x="860" y="-690" as="sourcePoint" />
            <mxPoint x="1020" y="-690" as="targetPoint" />
          </mxGeometry>
        </mxCell>
        <mxCell id="jM7nimucvdQbSOQcnxHk-12" value="ESTANCIA" style="whiteSpace=wrap;html=1;" vertex="1" parent="1">
          <mxGeometry x="1020" y="-720" width="120" height="60" as="geometry" />
        </mxCell>
        <mxCell id="jM7nimucvdQbSOQcnxHk-13" value="VUELOS" style="whiteSpace=wrap;html=1;" vertex="1" parent="1">
          <mxGeometry x="1020" y="-510" width="120" height="60" as="geometry" />
        </mxCell>
        <mxCell id="jM7nimucvdQbSOQcnxHk-15" value="OPCIÓN 2" style="text;html=1;align=center;verticalAlign=middle;resizable=0;points=[];autosize=1;strokeColor=none;fillColor=none;" vertex="1" parent="1">
          <mxGeometry x="260" y="-802" width="80" height="30" as="geometry" />
        </mxCell>
        <mxCell id="jM7nimucvdQbSOQcnxHk-16" value="(0,N)" style="text;html=1;align=center;verticalAlign=middle;resizable=0;points=[];autosize=1;strokeColor=none;fillColor=none;" vertex="1" parent="1">
          <mxGeometry x="175" y="-662" width="50" height="30" as="geometry" />
        </mxCell>
        <mxCell id="jM7nimucvdQbSOQcnxHk-17" value="N:M" style="text;html=1;align=center;verticalAlign=middle;resizable=0;points=[];autosize=1;strokeColor=none;fillColor=none;" vertex="1" parent="1">
          <mxGeometry x="335" y="-652" width="50" height="30" as="geometry" />
        </mxCell>
        <mxCell id="jM7nimucvdQbSOQcnxHk-18" value="(1,N)" style="text;html=1;align=center;verticalAlign=middle;resizable=0;points=[];autosize=1;strokeColor=none;fillColor=none;" vertex="1" parent="1">
          <mxGeometry x="525" y="-652" width="50" height="30" as="geometry" />
        </mxCell>
      </root>
    </mxGraphModel>
  </diagram>
</mxfile>
